<svg width="311" height="17" viewBox="0 0 311 17" xmlns="http://www.w3.org/2000/svg"><title>ic_logo_tata_wht_lg</title><g fill="#FFF" fill-rule="evenodd"><path d="M15.032 5.143V.816H.302v4.327h4.317v10.944h6.096V5.143h4.317zm7.619 1.782l-3.302 9.162h-5.84l5.84-15.27h6.35l5.84 15.27H25.7L22.65 6.925zm22.476-1.782V.816h-14.73v4.327h4.317v10.944h6.095V5.143h4.318zm7.619 1.782l-3.302 9.162h-5.841L49.444.817h6.35l5.84 15.27h-5.84l-3.048-9.162zM80.3 13.796c-.761.255-2.03.51-3.047.51-3.301 0-5.333-2.291-5.333-5.6 0-3.563 2.286-5.599 5.333-5.599 1.27 0 2.286.254 3.048.509l.508-2.036c-.508-.255-1.778-.764-3.81-.764-4.571 0-8.126 3.054-8.126 8.145 0 4.58 3.047 7.635 7.872 7.635 1.778 0 3.302-.255 3.81-.764l-.254-2.036zm8.509 2.8c4.063 0 7.11-2.8 7.11-8.144 0-4.327-2.539-7.636-6.856-7.636-4.318 0-7.365 3.309-7.365 7.89-.127 4.581 2.666 7.89 7.11 7.89zm0-2.29c-2.54 0-4.064-2.546-4.064-5.6s1.27-5.599 4.064-5.599c2.793 0 4.317 2.545 4.317 5.599 0 3.054-1.524 5.6-4.317 5.6zm12.19 2.035v-5.344c0-2.545 0-4.581-.254-6.618H101c.762 1.782 1.778 3.564 2.54 5.345l4.063 6.617h3.048V1.071h-2.794v5.345c0 2.29.254 4.326.254 6.362-.762-1.781-1.524-3.563-2.54-5.09l-4.063-6.617h-3.048v15.27H101zm12.19-.763c.762.509 2.286 1.018 4.064 1.018 3.81 0 5.587-2.036 5.587-4.581 0-2.291-1.27-3.563-3.81-4.581-2.031-.764-3.047-1.273-3.047-2.546 0-.763 1.016-1.781 2.54-1.781 1.523 0 2.54.509 3.047.763l.762-2.29c-.762-.51-2.032-.764-3.555-.764-3.302 0-5.588 1.782-5.588 4.327 0 2.29 1.778 3.563 4.318 4.581 1.778.51 2.54 1.273 2.54 2.545 0 1.273-1.016 2.036-2.794 2.036-1.27 0-2.794-.509-3.556-1.018l-.508 2.29zM125.38 1.07v8.653c0 4.836 2.286 6.872 5.842 6.872 3.81 0 6.095-2.036 6.095-6.872V1.071h-2.794v8.908c0 3.054-1.27 4.326-3.301 4.326-1.778 0-3.048-1.272-3.048-4.326V1.07h-2.793zm15.366 15.27h8.888v-2.29h-6.095V1.07h-2.793v15.27zm11.682 0h2.794V3.361h4.571v-2.29H148.11v2.29h4.317v12.98zm15.238-4.326l1.524 4.326h2.793l-4.825-15.27H163.6l-4.825 15.27h2.794l1.27-4.326h4.825zm-4.318-2.036l1.016-3.818c.508-1.018.762-2.036.762-2.8h.254c.254.764.254 1.782.762 2.8l1.016 3.818h-3.81zm13.46 6.362v-5.344c0-2.545 0-4.581-.253-6.618h.254c.508 1.782 1.523 3.564 2.54 5.345l4.063 6.617h2.793V1.071h-2.54v5.345c0 2.29 0 4.326.255 6.362-.762-1.781-1.524-3.563-2.54-5.09l-4.063-6.617h-3.048v15.27h2.54zm23.238-2.545a9.454 9.454 0 0 1-3.047.51c-3.302 0-5.333-2.291-5.333-5.6 0-3.563 2.285-5.599 5.333-5.599 1.27 0 2.286.254 3.047.509l.508-2.036c-.508-.255-1.777-.764-3.555-.764-4.572 0-8.127 3.054-8.127 8.145 0 4.58 2.794 7.635 7.619 7.635 2.032 0 3.301-.255 4.063-.764l-.508-2.036zm9.143 2.545V9.98l5.08-8.908h-3.302l-1.778 3.817c-.508 1.273-.762 2.037-1.27 3.055-.508-1.018-.762-1.782-1.27-3.055l-1.777-3.817h-3.302l4.826 8.908v6.362h2.793zm10.667-.763a9.804 9.804 0 0 0 4.317 1.018c3.81 0 5.587-2.036 5.587-4.581 0-2.291-1.27-3.563-3.81-4.581-2.03-.764-3.047-1.273-3.047-2.546 0-.763.762-1.781 2.54-1.781 1.524 0 2.54.509 3.047.763l.762-2.29c-.762-.51-2.031-.764-3.81-.764-3.3 0-5.332 1.782-5.332 4.327 0 2.29 1.777 3.563 4.063 4.581 2.032.51 2.794 1.273 2.794 2.545 0 1.273-1.016 2.036-2.794 2.036-1.27 0-2.794-.509-3.555-1.018l-.762 2.29zm21.206-8.399h-5.841V3.361h6.095v-2.29h-8.89v15.27h9.144v-2.29h-6.35V9.47h5.842V7.179zm3.047 9.162h2.794V9.98h1.27c1.778.254 2.54.763 2.793 2.8.508 1.78.762 3.053 1.016 3.562h2.794c-.254-.509-.508-2.29-1.016-4.326-.508-1.527-1.016-2.545-2.286-2.8v-.254c1.524-.51 2.794-1.782 2.794-3.818 0-1.273-.508-2.29-1.27-3.054-1.016-.764-2.54-1.018-4.571-1.018-1.778 0-3.302 0-4.318.254v15.016zm2.794-13.234h1.778c1.777 0 2.793.763 2.793 2.29 0 1.528-1.016 2.546-3.047 2.546h-1.524V3.107zm16.762 13.234l5.333-15.27h-3.048l-2.031 6.872c-.762 2.036-1.27 3.817-1.524 5.599h-.254c-.254-1.782-.762-3.563-1.27-5.6l-2.286-6.871h-3.047l5.079 15.27h3.048zm9.904 0V1.071h-2.793v15.27h2.793zm13.587-2.545a9.454 9.454 0 0 1-3.047.51c-3.302 0-5.333-2.291-5.333-5.6.254-3.563 2.285-5.599 5.333-5.599 1.27 0 2.285.254 3.047.509l.762-2.036c-.762-.255-2.031-.764-3.81-.764-4.57 0-8.126 3.054-8.126 8.145 0 4.58 2.794 7.635 7.873 7.635 1.778 0 3.301-.255 3.81-.764l-.509-2.036zm11.429-6.617h-5.841V3.361h6.095v-2.29h-8.889v15.27h9.397v-2.29h-6.603V9.47h5.84V7.179zm2.54 8.399c.761.509 2.54 1.018 4.063 1.018 3.81 0 5.841-2.036 5.841-4.581 0-2.291-1.27-3.563-4.063-4.581-2.032-.764-2.794-1.273-2.794-2.546 0-.763.762-1.781 2.54-1.781 1.27 0 2.285.509 3.047.763l.508-2.29c-.762-.51-2.032-.764-3.555-.764-3.302 0-5.334 1.782-5.334 4.327 0 2.29 1.524 3.563 4.064 4.581 1.778.51 2.54 1.273 2.54 2.545 0 1.273-.762 2.036-2.54 2.036-1.524 0-2.794-.509-3.81-1.018l-.508 2.29z"/></g></svg>